<svg
  width="24"
  height="24"
  viewBox="0 0 24 24"
  xmlns="http://www.w3.org/2000/svg"
>
  <path
    fill="currentColor"
    d="M12 6c3.052 0 5.5 2.448 5.5 5.5 0 1.32-.393 2.274-1.266 3.562l-.425.615c-.588.856-.891 1.411-1.078 2.02l-.468 2.338a1.2 1.2 0 01-1.177.965h-2.172a1.2 1.2 0 01-1.177-.965l-.458-2.291c-.21-.68-.512-1.23-1.088-2.067l-.425-.615C6.893 13.774 6.5 12.819 6.5 11.5 6.5 8.448 8.948 6 12 6zm1.65 12h-3.3l.368 1.84a.2.2 0 00.196.16h2.172a.2.2 0 00.196-.16L13.65 18zM12 7c-2.5 0-4.5 2-4.5 4.5 0 2.326 1.73 3.353 2.576 5.498h3.848c.845-2.145 2.576-3.172 2.576-5.498C16.5 9 14.5 7 12 7zm7.582 7.1l1.848.765a.5.5 0 11-.383.924l-1.847-.766a.5.5 0 01.382-.923zm-14.511.27a.5.5 0 01-.27.653l-1.848.766a.5.5 0 01-.383-.924l1.848-.765a.5.5 0 01.653.27zM21.7 7.482a.5.5 0 01-.27.653l-1.849.765a.5.5 0 01-.382-.923l1.847-.766a.5.5 0 01.654.27zm-18.748-.27l1.847.765a.5.5 0 01-.382.923L2.57 8.135a.5.5 0 11.383-.924zm13.065-5.413a.5.5 0 01.27.654L15.524 4.3a.5.5 0 01-.923-.382l.765-1.848a.5.5 0 01.653-.27zm-7.383.27l.766 1.85a.5.5 0 01-.923.382L7.71 2.453a.5.5 0 11.924-.383z"
  ></path>
</svg>
