<svg
  width="24"
  height="24"
  viewBox="0 0 24 24"
  xmlns="http://www.w3.org/2000/svg"
>
  <path
    d="M17.436 3c.892 0 1.215.093 1.54.267.327.174.583.43.757.756.174.326.267.65.267 1.54v12.873c0 .892-.093 1.215-.267 1.54a1.81 1.81 0 01-.756.757c-.326.174-.65.267-1.54.267H6.563c-.892 0-1.215-.093-1.54-.267a1.81 1.81 0 01-.757-.756c-.16-.301-.252-.6-.265-1.345L4 5.564c0-.892.093-1.215.267-1.54a1.81 1.81 0 01.756-.757c.301-.16.6-.252 1.345-.265L17.436 3zm.17 1.001H6.394l-.305.01c-.305.018-.449.06-.594.138a.814.814 0 00-.346.346c-.05.093-.085.186-.109.321l-.023.186-.008.114-.008.278v13.212l.01.305c.018.305.06.449.138.594a.814.814 0 00.346.346c.093.05.186.085.321.109l.186.023.114.008.278.008h11.212l.278-.008.114-.008.186-.023c.135-.024.228-.059.321-.109a.814.814 0 00.346-.346c.05-.093.085-.186.109-.321l.023-.186.008-.114.008-.278V5.394l-.008-.278-.008-.114-.023-.186a1.007 1.007 0 00-.109-.321.814.814 0 00-.346-.346 1.007 1.007 0 00-.321-.109l-.186-.023-.114-.008-.278-.008zM13 17v1H7v-1h6zm4-3v1H7v-1h10zm-.5-8a.5.5 0 01.5.5l-.001.01L17 10.5a.5.5 0 01-1 0l-.001-2.793-4.145 4.147a.501.501 0 01-.765-.638l.057-.07L15.292 7H12.5a.5.5 0 010-1h4z"
    fill="currentColor"
    fill-rule="evenodd"
  ></path>
</svg>
