<svg
  width="24"
  height="24"
  viewBox="0 0 24 24"
  xmlns="http://www.w3.org/2000/svg"
>
  <path
    fill-rule="evenodd"
    clip-rule="evenodd"
    d="M17 5H7a2 2 0 00-2 2v10a2 2 0 002 2h5.022c.23.359.494.694.788 1H7a3 3 0 01-3-3V7a3 3 0 013-3h10a3 3 0 013 3v2.498a6.45 6.45 0 00-1-.324V7a2 2 0 00-2-2zm.5 15a4.5 4.5 0 100-9 4.5 4.5 0 000 9zm0 1a5.5 5.5 0 100-11 5.5 5.5 0 000 11zm0-8a.5.5 0 01.492.41l.008.09V15h1.5a.5.5 0 01.09.992L19.5 16H18v1.5a.5.5 0 01-.992.09L17 17.5V16h-1.5a.5.5 0 01-.09-.992L15.5 15H17v-1.5a.5.5 0 01.5-.5z"
    fill="currentColor"
  ></path>
</svg>
