<svg
  width="24"
  height="24"
  viewBox="0 0 24 24"
  xmlns="http://www.w3.org/2000/svg"
>
  <path
    fill="currentColor"
    d="M10 13.5c3.323 0 5.803.697 7.427 2.119A2.5 2.5 0 0115.78 20H4.22a2.5 2.5 0 01-1.647-4.381C4.197 14.197 6.677 13.5 10 13.5zm0 1c-3.102 0-5.353.633-6.768 1.871A1.5 1.5 0 004.22 19h11.56a1.502 1.502 0 00.989-2.629C15.352 15.133 13.101 14.5 10 14.5zM19.5 6a.5.5 0 01.5.5V9h2.5a.5.5 0 010 1H20v2.5a.5.5 0 01-1 0V10h-2.5a.5.5 0 010-1H19V6.5a.5.5 0 01.5-.5zM10 4c2.21 0 4 1.79 4 4s-1.79 4-4 4-4-1.79-4-4 1.79-4 4-4zm0 1a3 3 0 100 6 3 3 0 000-6z"
    fill-rule="evenodd"
  ></path>
</svg>
