<svg
  width="24"
  height="24"
  viewBox="0 0 24 24"
  xmlns="http://www.w3.org/2000/svg"
>
  <path
    fill-rule="evenodd"
    clip-rule="evenodd"
    d="M6.368 4.002L15.436 4c.892 0 1.215.093 1.54.267.327.174.583.43.757.756.174.326.267.65.267 1.54v8.873c0 .892-.093 1.215-.267 1.54a1.81 1.81 0 01-.756.757c-.326.174-.65.267-1.54.267H6.563c-.892 0-1.215-.093-1.54-.267a1.817 1.817 0 01-.757-.756c-.16-.301-.252-.6-.265-1.345L4 6.564c0-.892.093-1.215.267-1.54a1.81 1.81 0 01.756-.757c.301-.16.6-.252 1.345-.265zM6.394 5l-.305.01c-.305.018-.449.06-.594.138a.818.818 0 00-.346.346c-.1.187-.141.37-.148.9v9.21l.01.306c.018.305.06.449.138.594a.818.818 0 00.346.346c.187.1.37.141.9.148l9.041.001c.662 0 .863-.039 1.07-.149a.819.819 0 00.345-.346c.1-.187.141-.37.148-.9L17 6.565c0-.662-.039-.864-.149-1.07a.818.818 0 00-.346-.345c-.187-.1-.37-.141-.9-.148h-9.21zM19 9h1v1h-1V9zm1 2h-1v1h1v-1zm-1 2h1v1h-1v-1zm1 2h-1v1h1v-1zm-1 2h1v1h-1v-1zM9 19h1v1H9v-1zm2 0h1v1h-1v-1zm3 0h-1v1h1v-1zm1 0h1v1h-1v-1zm3 0h-1v1h1v-1z"
  ></path>
</svg>
