<svg
  xmlns="http://www.w3.org/2000/svg"
  width="24"
  height="24"
  viewBox="0 0 24 24"
>
  <path
    fill="currentColor"
    fill-rule="evenodd"
    d="M12.987 2.25a2.07 2.07 0 0 0-1.974 0L4.048 6.037A1.99 1.99 0 0 0 3 7.782v7.436c0 .726.401 1.393 1.048 1.745l6.965 3.787a2.07 2.07 0 0 0 1.974 0l6.965-3.787A1.99 1.99 0 0 0 21 15.218V7.782a1.99 1.99 0 0 0-1.048-1.745zM12 7a.987.987 0 0 1 .985 1.041l-.236 4.25c-.053.945-1.445.945-1.498 0l-.236-4.25a.987.987 0 0 1 .93-1.04H12m1 8a1 1 0 1 1-2 0 1 1 0 0 1 2 0"
    clip-rule="evenodd"
  ></path>
</svg>
