<svg
  xmlns="http://www.w3.org/2000/svg"
  width="24"
  height="24"
  fill="none"
  viewBox="0 0 24 24"
>
  <path
    fill="currentColor"
    fill-rule="evenodd"
    d="M16.017 2c.128 1.123-.344 2.25-1.05 3.061-.704.81-1.86 1.44-2.993 1.357-.154-1.1.418-2.248 1.07-2.966.73-.809 1.957-1.413 2.973-1.452m3.66 6.542c-.175.101-2.194 1.268-2.17 3.641.028 2.855 2.596 3.836 2.704 3.877l.003.001-.005.015a10.3 10.3 0 0 1-1.39 2.711c-.842 1.169-1.714 2.332-3.09 2.355-.66.012-1.1-.17-1.56-.357-.48-.198-.98-.403-1.77-.403-.827 0-1.35.211-1.853.415-.436.176-.858.347-1.452.369-1.329.047-2.338-1.263-3.186-2.426-1.733-2.38-3.057-6.724-1.278-9.657a4.98 4.98 0 0 1 4.174-2.401c.74-.015 1.456.255 2.082.49.478.18.904.34 1.249.34.309 0 .723-.155 1.207-.336.761-.285 1.693-.633 2.654-.541.658.027 2.504.253 3.69 1.902l-.008.005z"
    clip-rule="evenodd"
  ></path>
</svg>
