<svg
  width="24"
  height="24"
  viewBox="0 0 24 24"
  xmlns="http://www.w3.org/2000/svg"
>
  <path
    fill="#666666"
    fill-rule="evenodd"
    clip-rule="evenodd"
    d="M5 4.50024H19C20.1046 4.50024 21 5.39567 21 6.50024V8.50024H3V6.50024C3 5.39567 3.89543 4.50024 5 4.50024ZM4 9.50024V18.5002C4 19.6048 4.89543 20.5002 6 20.5002H18C19.1046 20.5002 20 19.6048 20 18.5002V9.50024H4ZM9.5 11.5002C9.22386 11.5002 9 11.7241 9 12.0002C9 12.2764 9.22386 12.5002 9.5 12.5002H14.5C14.7761 12.5002 15 12.2764 15 12.0002C15 11.7241 14.7761 11.5002 14.5 11.5002H9.5Z"
  ></path>
</svg>
