<svg
  xmlns="http://www.w3.org/2000/svg"
  width="24"
  height="24"
  fill="none"
  viewBox="0 0 24 24"
>
  <path
    fill="currentColor"
    fill-rule="evenodd"
    d="M6.25 18a3.75 3.75 0 0 1-1.243-7.29 3 3 0 0 1 3.81-3.098 5.5 5.5 0 0 1 10.178 3.1A3.751 3.751 0 0 1 17.751 18H14v-1h3.75a2.75 2.75 0 0 0 .914-5.345l-.695-.245.028-.736L18 10.5a4.5 4.5 0 0 0-8.331-2.361l-.397.641-.726-.205a2.002 2.002 0 0 0-2.541 2.067l.053.76-.72.252A2.751 2.751 0 0 0 6.25 17H11v1zM13 11.707V20.5a.5.5 0 0 1-1 0v-8.793l-1.646 1.647a.5.5 0 0 1-.708-.708l2.5-2.5a.5.5 0 0 1 .708 0l2.5 2.5a.5.5 0 0 1-.708.708z"
    clip-rule="evenodd"
  ></path>
</svg>
