<svg
  xmlns="http://www.w3.org/2000/svg"
  width="24"
  height="24"
  fill="none"
  viewBox="0 0 24 24"
>
  <path
    fill="currentColor"
    d="M8.573 18h3.958c2.561 0 4.117-1.297 4.117-3.41 0-1.588-1.14-2.76-2.77-2.918v-.067c1.231-.2 2.188-1.322 2.188-2.611C16.066 7.173 14.66 6 12.48 6H8.573C7.907 6 7.5 6.416 7.5 7.114v9.772c0 .698.407 1.114 1.073 1.114m1.073-6.944V7.672h2.295c1.28 0 2.004.59 2.004 1.638 0 1.114-.84 1.746-2.337 1.746zm0 5.272v-3.75h2.303c1.647 0 2.511.64 2.511 1.863 0 1.23-.84 1.887-2.42 1.887z"
  ></path>
</svg>
