<svg
  xmlns="http://www.w3.org/2000/svg"
  width="24"
  height="24"
  fill="none"
  viewBox="0 0 24 24"
>
  <path
    fill="currentColor"
    fill-rule="evenodd"
    d="M13.987 5.612a.5.5 0 0 0-.974-.224l-3 13a.5.5 0 0 0 .974.224zM8.354 8.146a.5.5 0 0 1 0 .708L5.207 12l3.147 3.146a.5.5 0 1 1-.708.707l-3.5-3.5a.5.5 0 0 1 0-.707l3.5-3.5a.5.5 0 0 1 .708 0m7.292 7.707a.5.5 0 0 1 0-.707L18.793 12l-3.147-3.146a.5.5 0 0 1 .708-.708l3.5 3.5a.5.5 0 0 1 0 .707l-3.5 3.5a.5.5 0 0 1-.708 0"
    clip-rule="evenodd"
  ></path>
</svg>
