<svg
  xmlns="http://www.w3.org/2000/svg"
  width="24"
  height="24"
  fill="none"
  viewBox="0 0 24 24"
>
  <path
    fill="currentColor"
    fill-rule="evenodd"
    d="M10.96 3a1 1 0 0 0-.996.918l-.088 1.07a7 7 0 0 0-1.34.545l-.811-.688a1 1 0 0 0-1.354.056l-1.47 1.47a1 1 0 0 0-.056 1.354l.688.81a7 7 0 0 0-.544 1.34l-1.071.089A1 1 0 0 0 3 10.96v2.08a1 1 0 0 0 .918.996l1.134.094q.214.655.547 1.256l-.754.89a1 1 0 0 0 .056 1.353l1.47 1.47a1 1 0 0 0 1.354.056l.957-.812q.568.283 1.177.463l.105 1.276a1 1 0 0 0 .996.918h2.08a1 1 0 0 0 .996-.918l.11-1.34a7 7 0 0 0 1.096-.463l1.033.876a1 1 0 0 0 1.354-.056l1.47-1.47a1 1 0 0 0 .056-1.354l-.876-1.033q.277-.528.463-1.096l1.34-.11A1 1 0 0 0 21 13.04v-2.08a1 1 0 0 0-.918-.996l-1.276-.105a7 7 0 0 0-.463-1.177l.812-.957a1 1 0 0 0-.056-1.354l-1.47-1.47a1 1 0 0 0-1.354-.056l-.889.754q-.601-.334-1.256-.547l-.094-1.134A1 1 0 0 0 13.04 3zm-.5 2.868a.5.5 0 0 0 .383-.446L10.96 4h2.08l.12 1.474a.5.5 0 0 0 .368.442 6.2 6.2 0 0 1 1.646.718.5.5 0 0 0 .588-.043l1.16-.983 1.47 1.47-1.031 1.216a.5.5 0 0 0-.054.569 6.2 6.2 0 0 1 .622 1.582.5.5 0 0 0 .445.382L20 10.96v2.08l-1.679.138a.5.5 0 0 0-.441.366 6.2 6.2 0 0 1-.637 1.503.5.5 0 0 0 .05.578l1.099 1.297-1.47 1.47-1.297-1.1a.5.5 0 0 0-.578-.049 6.2 6.2 0 0 1-1.503.637.5.5 0 0 0-.366.441L13.039 20H10.96l-.133-1.626a.5.5 0 0 0-.382-.445 6.2 6.2 0 0 1-1.582-.622.5.5 0 0 0-.569.054l-1.216 1.03-1.47-1.47.983-1.159a.5.5 0 0 0 .043-.588 6.2 6.2 0 0 1-.718-1.646.5.5 0 0 0-.442-.367L4 13.04v-2.08l1.422-.117a.5.5 0 0 0 .446-.382c.145-.61.381-1.192.7-1.728a.5.5 0 0 0-.048-.579l-.912-1.076 1.47-1.47 1.076.912a.5.5 0 0 0 .58.049 6.2 6.2 0 0 1 1.727-.701ZM12 15.5a3.5 3.5 0 1 1 0-7 3.5 3.5 0 0 1 0 7m2.5-3.5a2.5 2.5 0 1 1-5 0 2.5 2.5 0 0 1 5 0"
    clip-rule="evenodd"
  ></path>
</svg>
