<svg
  width="62"
  height="62"
  viewBox="0 0 62 62"
  xmlns="http://www.w3.org/2000/svg"
>
  <path
    d="M18.46 24.16a1.3 1.3 0 011.83-1.82l7.75 7.75c.5.5.5 1.32 0 1.82l-7.75 7.75a1.3 1.3 0 11-1.83-1.82L25.3 31l-6.84-6.84zm9.96 15.88c0-.71.57-1.29 1.29-1.29h12.91a1.3 1.3 0 110 2.58H29.71a1.3 1.3 0 01-1.3-1.29z"
    fill="currentColor"
  ></path>
  <path
    fill-rule="evenodd"
    clip-rule="evenodd"
    d="M44.78 10.33c3.8 0 6.89 3.09 6.89 6.9v27.55c0 3.8-3.09 6.89-6.9 6.89H17.23a6.89 6.89 0 01-6.89-6.9V17.23c0-3.8 3.09-6.89 6.9-6.89h27.55zm-.22 2.59H17.44a4.52 4.52 0 00-4.51 4.18l-.01.34v27.12a4.52 4.52 0 004.18 4.51l.34.01h27.12a4.52 4.52 0 004.51-4.18l.01-.34V17.44a4.52 4.52 0 00-4.18-4.51l-.34-.01z"
    fill="currentColor"
  ></path>
</svg>
