<svg
  xmlns="http://www.w3.org/2000/svg"
  width="24"
  height="24"
  fill="none"
  viewBox="0 0 24 24"
>
  <path
    fill="currentColor"
    fill-rule="evenodd"
    d="M7.268 5H18a1 1 0 0 1 1 1v10.732A2 2 0 0 0 20 15V6a2 2 0 0 0-2-2H9a2 2 0 0 0-1.732 1M6 7h9a2 2 0 0 1 2 2v9a2 2 0 0 1-2 2H6a2 2 0 0 1-2-2V9a2 2 0 0 1 2-2M5 9a1 1 0 0 1 1-1h9a1 1 0 0 1 1 1v9a1 1 0 0 1-1 1H6a1 1 0 0 1-1-1zm6 5h2.5a.5.5 0 0 0 0-1H11v-2.5a.5.5 0 0 0-1 0V13H7.5a.5.5 0 0 0 0 1H10v2.5a.5.5 0 0 0 1 0z"
    clip-rule="evenodd"
  ></path>
</svg>
