<svg
  xmlns="http://www.w3.org/2000/svg"
  width="24"
  height="24"
  viewBox="0 0 24 24"
>
  <g fill="gray" fill-rule="evenodd" transform="translate(2 4)">
    <path
      fill-rule="nonzero"
      d="M13.047 2.888Q11.417 1.998 10 2C7.56 2 4.63 3.966 1.288 8q1.7 2.05 3.253 3.394l-.708.708Q2.231 10.707.518 8.638a1 1 0 0 1 0-1.276Q5.788 1 10 1q1.794 0 3.78 1.154zm-6.02 10.263C8.084 13.72 9.076 14 10 14c2.443 0 5.373-1.969 8.712-6q-1.666-2.01-3.193-3.341l.708-.709Q18.042 5.544 20 8q-5.581 7-10 7-1.762 0-3.709-1.113z"
    ></path>
    <path
      fill-rule="nonzero"
      d="m8.478 11.7.79-.79a3 3 0 0 0 3.642-3.642l.79-.79A4 4 0 0 1 8.477 11.7zM6.334 9.602a4 4 0 0 1 5.268-5.268l-.78.78A3.002 3.002 0 0 0 7.113 8.82l-.78.78z"
    ></path>
    <rect
      width="21"
      height="1"
      x="-0.722"
      y="7.778"
      rx="0.5"
      transform="rotate(-45 9.778 8.278)"
    ></rect>
  </g>
</svg>
