<svg
  xmlns="http://www.w3.org/2000/svg"
  width="25"
  height="24"
  fill="none"
  viewBox="0 0 25 24"
>
  <path
    fill="#4285F4"
    fill-rule="evenodd"
    d="M21.14 12.205q-.002-.958-.164-1.841H12.5v3.481h4.844a4.14 4.14 0 0 1-1.796 2.716v2.259h2.908c1.702-1.567 2.684-3.875 2.684-6.615"
    clip-rule="evenodd"
  ></path>
  <path
    fill="#0F9D58"
    fill-rule="evenodd"
    d="m18.456 18.82-2.908-2.259c-.806.54-1.837.86-3.048.86-2.344 0-4.328-1.584-5.036-3.711H4.457v2.332A9 9 0 0 0 12.5 21c2.43 0 4.467-.806 5.956-2.18"
    clip-rule="evenodd"
  ></path>
  <path
    fill="#FFCD40"
    fill-rule="evenodd"
    d="M7.464 13.71A5.4 5.4 0 0 1 7.182 12c0-.593.102-1.17.282-1.71V7.958H4.457A9 9 0 0 0 3.5 12c0 1.452.348 2.827.957 4.042z"
    clip-rule="evenodd"
  ></path>
  <path
    fill="#EA4335"
    fill-rule="evenodd"
    d="M12.5 6.58c1.321 0 2.508.454 3.44 1.345l2.582-2.58C16.963 3.891 14.926 3 12.5 3a9 9 0 0 0-8.043 4.958l3.007 2.332c.708-2.127 2.692-3.71 5.036-3.71"
    clip-rule="evenodd"
  ></path>
</svg>
