<svg
  xmlns="http://www.w3.org/2000/svg"
  width="24"
  height="24"
  viewBox="0 0 24 24"
>
  <path
    fill="currentColor"
    fill-rule="evenodd"
    d="M5.06 10 12 13.856 18.94 10 12 6.144zm-1.273-.437a.5.5 0 0 0 0 .874L6 11.667v4.715a1 1 0 0 0 .553.894l5 2.5a1 1 0 0 0 .894 0l5-2.5a1 1 0 0 0 .553-.894v-4.715l1.475-.82V14.5a.5.5 0 0 0 1 0V10h-.005a.5.5 0 0 0-.257-.437L12.486 5.27a1 1 0 0 0-.972 0zM17 12.223l-4.514 2.507a1 1 0 0 1-.972 0L7 12.222v4.16l5 2.5 5-2.5v-4.16Z"
    clip-rule="evenodd"
  ></path>
</svg>
