<svg
  xmlns="http://www.w3.org/2000/svg"
  width="24"
  height="24"
  fill="none"
  viewBox="0 0 24 24"
>
  <path
    fill="currentColor"
    fill-rule="evenodd"
    d="M6 7a.5.5 0 0 0-.5.5v9a.5.5 0 0 0 1 0V12h5v4.5a.5.5 0 0 0 1 0v-9a.5.5 0 0 0-1 0V11h-5V7.5A.5.5 0 0 0 6 7m9.579 5.644c.09-.299.368-.644 1.021-.644.354 0 .698.113.91.303.181.163.314.422.204.88-.028.116-.118.284-.311.51-.189.221-.442.46-.745.723-.2.175-.427.362-.663.558-.446.369-.928.768-1.341 1.165A.5.5 0 0 0 15 17h3.5a.5.5 0 1 0 0-1h-2.175l.26-.216q.369-.303.729-.613a8 8 0 0 0 .85-.828c.231-.272.44-.584.522-.926.19-.792-.036-1.433-.508-1.858C17.736 11.162 17.13 11 16.6 11c-1.114 0-1.768.655-1.979 1.356a.5.5 0 0 0 .958.288"
    clip-rule="evenodd"
  ></path>
</svg>
