<svg
  xmlns="http://www.w3.org/2000/svg"
  width="24"
  height="24"
  fill="none"
  viewBox="0 0 24 24"
>
  <path
    fill="currentColor"
    fill-rule="evenodd"
    d="M8.062 4h7.876a2 2 0 0 1 1.94 1.515l2.062 8.246q.06.24.06.486V18a2 2 0 0 1-2 2H6a2 2 0 0 1-2-2v-3.754a2 2 0 0 1 .06-.485l2.06-8.246A2 2 0 0 1 8.061 4Zm0 1a1 1 0 0 0-.97.758L5.03 14.004a1 1 0 0 0-.03.242V18a1 1 0 0 0 1 1h12a1 1 0 0 0 1-1v-3.754a1 1 0 0 0-.03-.242l-2.06-8.246A1 1 0 0 0 15.94 5zm6.643 10a2.75 2.75 0 0 1-5.41 0H7a.5.5 0 1 1 0-1h2.75a.5.5 0 0 1 .5.5 1.75 1.75 0 1 0 3.5 0 .5.5 0 0 1 .5-.5H17a.5.5 0 0 1 0 1z"
    clip-rule="evenodd"
  ></path>
</svg>
