<svg
  xmlns="http://www.w3.org/2000/svg"
  width="24"
  height="24"
  viewBox="0 0 24 24"
>
  <g fill="currentColor" fill-rule="evenodd">
    <path
      d="M6.5 14h2v1h-2zm10-2h1v1h-1zm0-2h1v1h-1zm-10 2h1v1h-1zm0-2h1v1h-1zm2 2h1v1h-1zm0-2h1v1h-1zm2 2h1v1h-1zm0-2h1v1h-1zm2 2h1v1h-1zm0-2h1v1h-1zm2 2h1v1h-1zm0-2h1v1h-1zm1 4h2v1h-2zm-6 0h5v1h-5z"
    ></path>
    <path
      fill-rule="nonzero"
      d="M6.56 7c-.66 0-.86.04-1.07.15a.8.8 0 0 0-.34.34C5.04 7.7 5 7.9 5 8.56v6.88c0 .66.04.86.15 1.07a.8.8 0 0 0 .34.34c.21.11.41.15 1.07.15h10.88c.66 0 .86-.04 1.07-.15a.8.8 0 0 0 .34-.35c.11-.2.15-.4.15-1.06V8.56c0-.66-.04-.86-.15-1.07a.8.8 0 0 0-.35-.34c-.2-.11-.4-.15-1.06-.15zm0-1h10.88c.89 0 1.21.1 1.54.27.32.17.58.43.75.75.18.33.27.65.27 1.54v6.88c0 .89-.1 1.21-.27 1.54a1.8 1.8 0 0 1-.75.75c-.33.18-.65.27-1.54.27H6.56c-.89 0-1.21-.1-1.54-.27a1.8 1.8 0 0 1-.75-.75c-.18-.33-.27-.65-.27-1.54V8.56c0-.89.1-1.21.27-1.54.17-.32.43-.58.75-.75.33-.18.65-.27 1.54-.27"
    ></path>
  </g>
</svg>
