<svg
  width="24"
  height="24"
  viewBox="0 0 24 24"
  xmlns="http://www.w3.org/2000/svg"
>
  <path
    d="M8.354 12.95l-.708-.707L5.88 14.01a3 3 0 104.242 4.243l3.536-3.536a3 3 0 000-4.242l-.707.707a2 2 0 010 2.828l-3.536 3.536a2 2 0 11-2.828-2.829l1.768-1.767z"
    fill="currentColor"
  ></path>
  <path
    d="M15.778 11.182l.707.707 1.768-1.768A3 3 0 1014.01 5.88l-3.535 3.535a3 3 0 000 4.243l.707-.707a2 2 0 010-2.829l3.535-3.535a2 2 0 112.829 2.828l-1.768 1.768z"
    fill="currentColor"
  ></path>
</svg>
