<svg
  xmlns="http://www.w3.org/2000/svg"
  width="24"
  height="24"
  fill="none"
  viewBox="0 0 24 24"
>
  <path
    fill="currentColor"
    fill-rule="evenodd"
    d="M15 6.995V9H9V6.995C9 5.895 9.9 5 11.01 5h1.988C14.102 5 15 5.897 15 6.995M8 9V6.995A3.003 3.003 0 0 1 11.01 4h1.988A3 3 0 0 1 16 6.995V9h.994C18.102 9 19 9.887 19 11v6c0 1.105-.897 2-2.006 2H7.006A2 2 0 0 1 5 17v-6c0-1.105.897-2 2.006-2zm-2 2v6c0 .556.446 1 1.006 1h9.988c.557 0 1.006-.448 1.006-1v-6c0-.556-.446-1-1.006-1H7.006C6.449 10 6 10.448 6 11m4 3a2 2 0 1 0 4 0 2 2 0 0 0-4 0m2 1a1 1 0 1 0 0-2 1 1 0 0 0 0 2"
    clip-rule="evenodd"
  ></path>
</svg>
