<svg
  xmlns="http://www.w3.org/2000/svg"
  width="24"
  height="24"
  fill="none"
  viewBox="0 0 24 24"
>
  <path
    fill="currentColor"
    fill-rule="evenodd"
    d="m6.585 15.388-.101.113c-.286.322-.484.584-.484 1h12c0-.416-.198-.678-.484-1l-.101-.113a6.5 6.5 0 0 1-.7-.887c-.213-.33-.355-.551-.458-.79-.209-.482-.256-1.035-.4-2.71-.214-3.5-1.357-5.5-3.857-5.5s-3.643 2-3.857 5.5c-.144 1.675-.191 2.227-.4 2.71-.103.239-.245.46-.457.79a6.6 6.6 0 0 1-.701.887m10.511-2.312c-.083-.341-.131-.862-.241-2.148-.113-1.811-.469-3.392-1.237-4.544C14.8 5.157 13.57 4.5 12 4.5c-1.571 0-2.8.656-3.618 1.883-.768 1.152-1.124 2.733-1.237 4.544-.11 1.286-.158 1.807-.241 2.148-.062.253-.13.373-.46.884a5 5 0 0 1-.57.723q-.11.12-.232.261C5.349 15.285 5 15.765 5 16.5a1 1 0 0 0 1 1h3a3 3 0 0 0 6 0h3a1 1 0 0 0 1-1c0-.735-.35-1.215-.642-1.557q-.122-.141-.232-.261c-.197-.22-.372-.415-.57-.723-.33-.511-.398-.63-.46-.884ZM14 17.5h-4a2 2 0 1 0 4 0"
    clip-rule="evenodd"
  ></path>
</svg>
