<svg
  xmlns="http://www.w3.org/2000/svg"
  width="24"
  height="24"
  fill="none"
  viewBox="0 0 24 24"
>
  <path
    fill="currentColor"
    fill-rule="evenodd"
    d="M5.475 19a1.5 1.5 0 0 1-1.254-2.323C5.568 14.625 6.25 11.989 6.25 8.75a5.75 5.75 0 1 1 11.5 0c0 3.24.682 5.875 2.03 7.927A1.5 1.5 0 0 1 18.524 19H14.5a2.5 2.5 0 0 1-5 0zM12 20.5a1.5 1.5 0 0 0 1.5-1.5h-3a1.5 1.5 0 0 0 1.5 1.5m7.025-3a.5.5 0 0 1-.5.5H5.475a.5.5 0 0 1-.418-.774Q7.25 13.884 7.25 8.75a4.75 4.75 0 0 1 9.5 0q0 5.135 2.193 8.476a.5.5 0 0 1 .082.274"
    clip-rule="evenodd"
  ></path>
</svg>
