<svg
  xmlns="http://www.w3.org/2000/svg"
  width="24"
  height="24"
  fill="none"
  viewBox="0 0 24 24"
>
  <path
    fill="currentColor"
    fill-rule="evenodd"
    d="M7.002 9.892c0 .37-.245.608-.61.608-.367 0-.615-.238-.615-.608V6.665h-.024l-.604.42a.47.47 0 0 1-.303.104.41.41 0 0 1-.416-.426c0-.178.07-.316.245-.437l.917-.625c.258-.174.467-.201.708-.201.444 0 .702.265.702.688zM10.5 6a.5.5 0 0 0 0 1h9a.5.5 0 1 0 0-1zm-.5 6a.5.5 0 0 1 .5-.5h9a.5.5 0 1 1 0 1h-9a.5.5 0 0 1-.5-.5m0 5.5a.5.5 0 0 1 .5-.5h9a.5.5 0 1 1 0 1h-9a.5.5 0 0 1-.5-.5m-5.199 1h2.705c.314 0 .497-.193.497-.477 0-.29-.183-.476-.497-.476H5.819v-.024l.97-.886c.774-.7 1.092-1.058 1.092-1.683 0-.862-.73-1.454-1.842-1.454-.89 0-1.538.43-1.751.99a.7.7 0 0 0-.051.271c0 .304.193.49.514.49.25 0 .395-.098.55-.338.18-.324.4-.48.72-.48.39 0 .66.25.66.602 0 .318-.155.54-.727 1.061l-1.393 1.265c-.243.21-.341.375-.341.608 0 .308.183.531.581.531"
    clip-rule="evenodd"
  ></path>
</svg>
