<svg
  xmlns="http://www.w3.org/2000/svg"
  width="24"
  height="24"
  fill="none"
  viewBox="0 0 24 24"
>
  <path
    fill="currentColor"
    fill-rule="evenodd"
    d="M7.507 6.203a.94.94 0 0 1 .399-.907c.293-.217.7-.321 1.054-.288 1.43.13 2.546 1.584 2.55 2.994H9.754c-.41 0-.957-.15-1.412-.463-.445-.308-.773-.75-.835-1.336m-.17 1.799a2.75 2.75 0 0 1-.824-1.693 1.94 1.94 0 0 1 .797-1.816 2.6 2.6 0 0 1 1.741-.481c1.316.12 2.374.988 2.958 2.079.584-1.091 1.639-1.96 2.955-2.08.55-.05 1.199.116 1.701.482.52.38.91.999.822 1.816a2.75 2.75 0 0 1-.825 1.693H18.5a1.5 1.5 0 0 1 1.5 1.5v2a1.5 1.5 0 0 1-1 1.414v5.086a2 2 0 0 1-2 2H7a2 2 0 0 1-2-2v-5.086a1.5 1.5 0 0 1-1-1.414v-2a1.5 1.5 0 0 1 1.5-1.5zm6.909 0H12.51c.004-1.411 1.117-2.864 2.545-2.995a1.6 1.6 0 0 1 1.021.294c.287.21.46.503.417.902-.062.586-.39 1.028-.835 1.336-.455.313-1.002.463-1.412.463m-2.746 1h-6a.5.5 0 0 0-.5.5v2a.5.5 0 0 0 .5.5h6zm1 3h6a.5.5 0 0 0 .5-.5v-2a.5.5 0 0 0-.5-.5h-6zm5.5 1h-5.5v6H17a1 1 0 0 0 1-1zm-6.5 0H6v5a1 1 0 0 0 1 1h4.5z"
    clip-rule="evenodd"
  ></path>
</svg>
