<svg
  xmlns="http://www.w3.org/2000/svg"
  width="24"
  height="24"
  fill="none"
  viewBox="0 0 24 24"
>
  <path
    fill="currentColor"
    fill-rule="evenodd"
    d="M17 5H7a2 2 0 0 0-2 2v10a2 2 0 0 0 2 2h5.022q.346.54.788 1H7a3 3 0 0 1-3-3V7a3 3 0 0 1 3-3h10a3 3 0 0 1 3 3v2.498a6.5 6.5 0 0 0-1-.324V7a2 2 0 0 0-2-2m.5 15a4.5 4.5 0 1 0 0-9 4.5 4.5 0 0 0 0 9m0 1a5.5 5.5 0 1 0 0-11 5.5 5.5 0 0 0 0 11m0-8a.5.5 0 0 1 .492.41l.008.09V15h1.5a.5.5 0 0 1 .09.992L19.5 16H18v1.5a.5.5 0 0 1-.992.09L17 17.5V16h-1.5a.5.5 0 0 1-.09-.992L15.5 15H17v-1.5a.5.5 0 0 1 .5-.5"
    clip-rule="evenodd"
  ></path>
</svg>
