<svg
  xmlns="http://www.w3.org/2000/svg"
  width="24"
  height="24"
  fill="none"
  viewBox="0 0 24 24"
>
  <path
    fill="currentColor"
    fill-rule="evenodd"
    d="M6.55 12.5q.747 0 1.249-.498a1.66 1.66 0 0 0 .501-1.224q0-.684-.509-1.203-.509-.52-1.301-.605 0-1.09 1.642-1.912a.207.207 0 0 0 .09-.286l-.382-.67a.2.2 0 0 0-.262-.08Q4.5 7.575 4.5 10.278q0 .926.606 1.573.606.648 1.444.648Zm5.2 0q.747 0 1.249-.498a1.66 1.66 0 0 0 .501-1.224q0-.684-.509-1.203-.509-.52-1.301-.605 0-1.09 1.642-1.912a.207.207 0 0 0 .09-.286l-.382-.67a.2.2 0 0 0-.262-.08Q9.7 7.575 9.7 10.278q0 .926.606 1.573.606.648 1.444.648ZM5 17a.5.5 0 0 0 0 1h14a.5.5 0 0 0 0-1zm10.5-5a.5.5 0 0 1 .5-.5h3a.5.5 0 0 1 0 1h-3a.5.5 0 0 1-.5-.5m.5-6a.5.5 0 0 0 0 1h3a.5.5 0 0 0 0-1z"
    clip-rule="evenodd"
  ></path>
</svg>
