<svg
  xmlns="http://www.w3.org/2000/svg"
  width="24"
  height="24"
  fill="none"
  viewBox="0 0 24 24"
>
  <path
    fill="currentColor"
    fill-rule="evenodd"
    d="M4.854 5.354a1.974 1.974 0 0 0-.272 2.453.5.5 0 1 1-.843.538 2.974 2.974 0 0 1 4.106-4.106.5.5 0 0 1-.536.843 1.976 1.976 0 0 0-2.455.272m11.839-.272a1.974 1.974 0 0 1 2.725 2.727.5.5 0 1 0 .844.536 2.976 2.976 0 0 0-4.107-4.106.5.5 0 1 0 .538.843m.245 13.063A7.47 7.47 0 0 1 12 20a7.47 7.47 0 0 1-4.938-1.855l-1.708 1.709a.5.5 0 1 1-.708-.708l1.709-1.708a7.5 7.5 0 1 1 11.29 0l1.709 1.708a.5.5 0 1 1-.708.707zM12 19a6.5 6.5 0 1 1 0-13 6.5 6.5 0 0 1 0 13m0-11v4h2.5a.5.5 0 0 1 0 1h-3a.5.5 0 0 1-.5-.5V8a.5.5 0 1 1 1 0"
    clip-rule="evenodd"
  ></path>
</svg>
