<svg
  xmlns="http://www.w3.org/2000/svg"
  width="24"
  height="24"
  fill="none"
  viewBox="0 0 24 24"
>
  <path
    fill="currentColor"
    fill-rule="evenodd"
    d="M4.723 6.766c1-.664 2.332-1.058 3.777-1.058 1.315 0 2.537.327 3.5.886.963-.56 2.185-.886 3.5-.886 1.446 0 2.777.394 3.777 1.058a.5.5 0 0 1 .223.417v10.11a.5.5 0 0 1-.777.417c-.817-.543-1.951-.89-3.223-.89-1.271 0-2.406.347-3.223.89a.5.5 0 0 1-.554 0c-.817-.543-1.952-.89-3.223-.89s-2.406.347-3.223.89a.5.5 0 0 1-.777-.416V7.183a.5.5 0 0 1 .223-.417Zm6.777.694c-.795-.462-1.84-.752-3-.752s-2.205.29-3 .752v8.986c.87-.4 1.903-.627 3-.627s2.13.227 3 .627V7.46Zm1 8.986c.87-.4 1.903-.627 3-.627 1.098 0 2.13.227 3 .627V7.46c-.795-.462-1.84-.752-3-.752s-2.205.29-3 .752v8.986Z"
    clip-rule="evenodd"
  ></path>
</svg>
