<svg
  xmlns="http://www.w3.org/2000/svg"
  width="24"
  height="24"
  fill="none"
  viewBox="0 0 24 24"
>
  <path
    fill="currentColor"
    fill-rule="evenodd"
    d="M20 16h-1v1a1 1 0 0 1-1 1H6a1 1 0 0 1-1-1V7a1 1 0 0 1 1-1h12a1 1 0 0 1 1 1v1h1V7a2 2 0 0 0-2-2H6a2 2 0 0 0-2 2v10a2 2 0 0 0 2 2h12a2 2 0 0 0 2-2zm0-7h-6a2 2 0 0 0-2 2v2a2 2 0 0 0 2 2h6a1 1 0 0 0 1-1v-4a1 1 0 0 0-1-1m-6 1a1 1 0 0 0-1 1v2a1 1 0 0 0 1 1h6v-4zm4 3a1 1 0 1 0 0-2 1 1 0 0 0 0 2"
    clip-rule="evenodd"
  ></path>
</svg>
