<svg
  xmlns="http://www.w3.org/2000/svg"
  width="24"
  height="24"
  viewBox="0 0 24 24"
>
  <path
    fill="currentColor"
    fill-rule="evenodd"
    d="m5.06 11.085-1.17.955a.5.5 0 1 1-.633-.774l1.68-1.372a1 1 0 0 1 1.379.11l1.44 1.615a.5.5 0 0 1-.747.665l-.957-1.074a6 6 0 0 0 10.934 4.13l.718.718A7 7 0 0 1 5.06 11.085m13.905 1.62 1.07-.936a.5.5 0 0 1 .66.752l-1.618 1.415a1 1 0 0 1-1.4-.082l-1.359-1.502a.5.5 0 0 1 .742-.67l.902.997A6 6 0 0 0 7.014 8.661l-.718-.719a7 7 0 0 1 12.67 4.764z"
  ></path>
</svg>
