<svg
  xmlns="http://www.w3.org/2000/svg"
  width="24"
  height="24"
  fill="none"
  viewBox="0 0 24 24"
>
  <path
    fill="#FFBA0A"
    d="M10.026 3.976a2.485 2.485 0 0 1 3.948 0 2.49 2.49 0 0 0 2.304.954 2.485 2.485 0 0 1 2.792 2.792 2.49 2.49 0 0 0 .954 2.304 2.485 2.485 0 0 1 0 3.948 2.49 2.49 0 0 0-.954 2.304 2.485 2.485 0 0 1-2.792 2.792 2.49 2.49 0 0 0-2.304.954 2.485 2.485 0 0 1-3.948 0 2.49 2.49 0 0 0-2.304-.954 2.485 2.485 0 0 1-2.792-2.792 2.49 2.49 0 0 0-.954-2.304 2.485 2.485 0 0 1 0-3.948 2.49 2.49 0 0 0 .954-2.304A2.485 2.485 0 0 1 7.722 4.93a2.49 2.49 0 0 0 2.304-.954"
  ></path>
  <g filter="url(#a)">
    <path
      fill="#fff"
      d="M10.084 7.137c-.033-.651.847-.887 1.144-.306l1.11 2.172c.163.32.567.428.868.233l2.047-1.326c.548-.355 1.192.289.837.837l-1.326 2.047a.605.605 0 0 0 .233.868l2.172 1.11c.581.297.345 1.177-.306 1.144l-2.437-.125a.605.605 0 0 0-.635.635l.125 2.437c.033.651-.847.887-1.144.306l-1.11-2.172a.605.605 0 0 0-.868-.233L8.747 16.09c-.548.355-1.192-.289-.837-.837l1.326-2.047a.605.605 0 0 0-.233-.868l-2.172-1.11c-.581-.297-.345-1.177.306-1.144l2.437.125a.605.605 0 0 0 .635-.635z"
    ></path>
  </g>
  <defs>
    <filter
      id="a"
      width="15"
      height="15"
      x="4.5"
      y="4.5"
      color-interpolation-filters="sRGB"
      filterUnits="userSpaceOnUse"
    >
      <feFlood flood-opacity="0" result="BackgroundImageFix"></feFlood>
      <feColorMatrix
        in="SourceAlpha"
        result="hardAlpha"
        values="0 0 0 0 0 0 0 0 0 0 0 0 0 0 0 0 0 0 127 0"
      ></feColorMatrix>
      <feOffset></feOffset>
      <feGaussianBlur stdDeviation="1"></feGaussianBlur>
      <feComposite in2="hardAlpha" operator="out"></feComposite>
      <feColorMatrix
        values="0 0 0 0 0.780392 0 0 0 0 0.482353 0 0 0 0 0 0 0 0 0.3 0"
      ></feColorMatrix>
      <feBlend
        in2="BackgroundImageFix"
        result="effect1_dropShadow_19205_209258"
      ></feBlend>
      <feBlend
        in="SourceGraphic"
        in2="effect1_dropShadow_19205_209258"
        result="shape"
      ></feBlend>
    </filter>
  </defs>
</svg>
