<svg
  xmlns="http://www.w3.org/2000/svg"
  width="16"
  height="16"
  fill="none"
  viewBox="0 0 16 16"
>
  <path
    fill="#FFBA0A"
    d="M6.684 2.65a1.657 1.657 0 0 1 2.632 0c.361.473.947.715 1.536.637a1.657 1.657 0 0 1 1.861 1.861 1.66 1.66 0 0 0 .636 1.536c.868.663.868 1.97 0 2.632a1.66 1.66 0 0 0-.636 1.536 1.657 1.657 0 0 1-1.861 1.861 1.66 1.66 0 0 0-1.536.636 1.657 1.657 0 0 1-2.632 0 1.66 1.66 0 0 0-1.536-.636 1.657 1.657 0 0 1-1.861-1.861 1.66 1.66 0 0 0-.636-1.536 1.657 1.657 0 0 1 0-2.632c.472-.361.714-.947.636-1.536a1.657 1.657 0 0 1 1.861-1.861 1.66 1.66 0 0 0 1.536-.636Z"
  ></path>
  <g filter="url(#a)">
    <path
      fill="#fff"
      d="M6.806 4.969c-.021-.406.527-.553.713-.191l.692 1.354c.101.2.353.267.54.145l1.277-.827c.341-.22.743.18.522.522l-.827 1.276a.377.377 0 0 0 .145.542l1.354.692c.363.185.216.733-.19.712l-1.52-.078a.377.377 0 0 0-.396.397l.078 1.518c.021.407-.527.554-.713.191L7.79 9.868a.377.377 0 0 0-.54-.145l-1.277.827c-.342.221-.743-.18-.522-.522l.827-1.276a.377.377 0 0 0-.145-.541l-1.354-.692c-.363-.185-.216-.734.19-.713l1.52.078a.377.377 0 0 0 .396-.396l-.078-1.52Z"
    ></path>
  </g>
  <defs>
    <filter
      id="a"
      width="10.286"
      height="10.286"
      x="2.857"
      y="2.857"
      color-interpolation-filters="sRGB"
      filterUnits="userSpaceOnUse"
    >
      <feFlood flood-opacity="0" result="BackgroundImageFix"></feFlood>
      <feColorMatrix
        in="SourceAlpha"
        result="hardAlpha"
        values="0 0 0 0 0 0 0 0 0 0 0 0 0 0 0 0 0 0 127 0"
      ></feColorMatrix>
      <feOffset></feOffset>
      <feGaussianBlur stdDeviation="0.857"></feGaussianBlur>
      <feComposite in2="hardAlpha" operator="out"></feComposite>
      <feColorMatrix
        values="0 0 0 0 0.780392 0 0 0 0 0.482353 0 0 0 0 0 0 0 0 0.3 0"
      ></feColorMatrix>
      <feBlend
        in2="BackgroundImageFix"
        result="effect1_dropShadow_19205_209264"
      ></feBlend>
      <feBlend
        in="SourceGraphic"
        in2="effect1_dropShadow_19205_209264"
        result="shape"
      ></feBlend>
    </filter>
  </defs>
</svg>
